<?xml version="1.0" encoding="UTF-8"?>
<svg width="200px" height="200px" viewBox="0 0 200 200" version="1.1" xmlns="http://www.w3.org/2000/svg" xmlns:xlink="http://www.w3.org/1999/xlink">
    <title>Illustration / Plan Details / Covid / @Yellow</title>
    <defs>
        <path d="M3.498,2.971 C0.071,6.398 0.049,11.931 3.449,15.33 L3.449,15.33 C6.848,18.729 12.381,18.707 15.807,15.281 L15.807,15.281 C19.234,11.854 19.256,6.321 15.857,2.922 L15.857,2.922 C14.167,1.232 11.947,0.387 9.723,0.387 L9.723,0.387 C7.474,0.387 5.221,1.249 3.498,2.971 L3.498,2.971 Z" id="path-1"></path>
        <path d="M2.726,2.364 C0.156,4.933 0.139,9.083 2.688,11.633 L2.688,11.633 C5.238,14.182 9.388,14.165 11.958,11.596 L11.958,11.596 C14.528,9.025 14.545,4.875 11.995,2.326 L11.995,2.326 C10.727,1.059 9.063,0.425 7.394,0.425 L7.394,0.425 C5.708,0.425 4.017,1.071 2.726,2.364 L2.726,2.364 Z" id="path-3"></path>
        <path d="M2.889,2.199 C0.32,4.769 0.304,8.919 2.853,11.469 L2.853,11.469 C5.402,14.018 9.551,14.001 12.122,11.431 L12.122,11.431 C14.691,8.861 14.708,4.711 12.159,2.162 L12.159,2.162 C10.891,0.894 9.226,0.262 7.559,0.261 L7.559,0.261 C5.872,0.261 4.182,0.908 2.889,2.199 L2.889,2.199 Z" id="path-5"></path>
        <path d="M0.499,5 C0.499,7.485 2.515,9.5 4.999,9.5 L4.999,9.5 C7.485,9.5 9.499,7.485 9.499,5 L9.499,5 C9.499,2.514 7.485,0.5 4.999,0.5 L4.999,0.5 C2.515,0.5 0.499,2.514 0.499,5 L0.499,5 Z M3,5 C3,3.896 3.895,3 4.999,3 L4.999,3 C6.105,3 7,3.896 7,5 L7,5 C7,6.105 6.105,7 4.999,7 L4.999,7 C3.895,7 3,6.105 3,5 L3,5 Z" id="path-7"></path>
        <path d="M0,2.5 C0,3.881 1.12,5 2.5,5 L2.5,5 C3.881,5 5,3.881 5,2.5 L5,2.5 C5,1.119 3.881,0 2.5,0 L2.5,0 C1.12,0 0,1.119 0,2.5 L0,2.5 Z" id="path-9"></path>
        <path d="M5.793,1.207 L5.793,5.793 L1.207,5.793 L1.083,5.799 C0.474,5.861 0,6.375 0,7 L0,7 C0,7.667 0.54,8.207 1.207,8.207 L1.207,8.207 L5.793,8.207 L5.793,12.793 L5.799,12.916 C5.861,13.525 6.374,14 7,14 L7,14 C7.667,14 8.207,13.46 8.207,12.793 L8.207,12.793 L8.207,8.207 L12.792,8.207 L12.917,8.2 C13.525,8.139 14,7.625 14,7 L14,7 C14,6.334 13.46,5.793 12.792,5.793 L12.792,5.793 L8.207,5.793 L8.207,1.207 L8.201,1.083 C8.138,0.475 7.625,0 7,0 L7,0 C6.334,0 5.793,0.54 5.793,1.207 L5.793,1.207 Z" id="path-11"></path>
    </defs>
    <g id="Illustration-/-Plan-Details-/-Covid-/-@Yellow" stroke="none" stroke-width="1" fill="none" fill-rule="evenodd">
        <rect id="Rectangle" x="0" y="0" width="200" height="200"></rect>
        <g id="Illustration-/-Find-Care-/-Covid"></g>
        <g id="Group-68" transform="translate(29.000000, 34.000000)">
            <g id="Group-33" transform="translate(12.000000, 3.000000)">
                <path d="M16.6527,17.7949 C16.6527,17.4749 16.7747,17.1549 17.0187,16.9109 C17.5067,16.4229 18.2987,16.4229 18.7867,16.9109 L92.6417,90.7669 C93.1297,91.2549 93.1297,92.0459 92.6417,92.5339 C92.1527,93.0229 91.3617,93.0229 90.8737,92.5339 L17.0187,18.6789 C16.7747,18.4349 16.6527,18.1149 16.6527,17.7949" id="Fill-1" fill="#22272D"></path>
                <path d="M85.2254,98.9756 C85.2254,98.6556 85.3474,98.3356 85.5914,98.0916 L97.9994,85.6826 C98.4884,85.1946 99.2794,85.1946 99.7674,85.6826 C100.2554,86.1706 100.2554,86.9616 99.7674,87.4506 L87.3594,99.8596 C86.8714,100.3476 86.0794,100.3476 85.5914,99.8596 C85.3474,99.6156 85.2254,99.2946 85.2254,98.9756" id="Fill-3" fill="#22272D"></path>
                <path d="M9.6791,23.23 C9.6791,22.91 9.8011,22.59 10.0451,22.346 L22.4531,9.938 C22.9421,9.449 23.7331,9.449 24.2211,9.938 C24.7091,10.426 24.7091,11.217 24.2211,11.705 L11.8131,24.114 C11.3251,24.602 10.5331,24.602 10.0451,24.114 C9.8011,23.87 9.6791,23.55 9.6791,23.23" id="Fill-5" fill="#22272D"></path>
                <path d="M55.9676,71.1494 C55.2836,71.1494 54.7256,70.5994 54.7176,69.9144 L53.9426,2.8474 C53.9346,2.1564 54.4886,1.5904 55.1776,1.5824 L55.1936,1.5824 C55.8766,1.5824 56.4346,2.1324 56.4426,2.8174 L57.2176,69.8844 C57.2256,70.5754 56.6726,71.1414 55.9826,71.1494 L55.9676,71.1494 Z" id="Fill-7" fill="#22272D"></path>
                <path d="M63.9667,2.6045 L46.4187,2.6045 C45.7277,2.6045 45.1687,2.0445 45.1687,1.3545 C45.1687,0.6645 45.7277,0.1045 46.4187,0.1045 L63.9667,0.1045 C64.6567,0.1045 65.2167,0.6645 65.2167,1.3545 C65.2167,2.0445 64.6567,2.6045 63.9667,2.6045" id="Fill-9" fill="#22272D"></path>
                <path d="M17.8031,93.1523 C17.4831,93.1523 17.1631,93.0303 16.9191,92.7863 C16.4311,92.2983 16.4311,91.5063 16.9191,91.0183 L90.7751,17.1623 C91.2631,16.6743 92.0541,16.6743 92.5431,17.1623 C93.0311,17.6513 93.0311,18.4423 92.5431,18.9303 L18.6871,92.7863 C18.4431,93.0303 18.1231,93.1523 17.8031,93.1523" id="Fill-11" fill="#22272D"></path>
                <path d="M98.9832,24.5791 C98.6642,24.5791 98.3432,24.4571 98.0992,24.2131 L85.6912,11.8051 C85.2032,11.3161 85.2032,10.5251 85.6912,10.0371 C86.1792,9.5491 86.9702,9.5491 87.4592,10.0371 L99.8672,22.4451 C100.3552,22.9331 100.3552,23.7251 99.8672,24.2131 C99.6232,24.4571 99.3032,24.5791 98.9832,24.5791" id="Fill-13" fill="#22272D"></path>
                <path d="M23.2381,100.126 C22.9181,100.126 22.5981,100.004 22.3541,99.76 L9.9461,87.352 C9.4571,86.863 9.4571,86.072 9.9461,85.584 C10.4341,85.096 11.2251,85.096 11.7131,85.584 L24.1221,97.992 C24.6101,98.48 24.6101,99.272 24.1221,99.76 C23.8781,100.004 23.5581,100.126 23.2381,100.126" id="Fill-15" fill="#22272D"></path>
                <path d="M1.621,55.7114 C1.395,55.4854 1.255,55.1724 1.255,54.8274 C1.255,54.1374 1.814,53.5774 2.505,53.5774 L106.953,53.5784 C107.643,53.5784 108.202,54.1374 108.202,54.8284 C108.202,55.5184 107.643,56.0784 106.953,56.0784 L2.505,56.0774 C2.16,56.0774 1.847,55.9384 1.621,55.7114" id="Fill-17" fill="#22272D"></path>
                <path d="M107.5125,64.626 C107.2865,64.4 107.1465,64.088 107.1465,63.742 L107.1465,46.194 C107.1465,45.504 107.7055,44.944 108.3965,44.944 C109.0865,44.944 109.6465,45.504 109.6465,46.194 L109.6465,63.742 C109.6465,64.433 109.0865,64.992 108.3965,64.992 C108.0515,64.992 107.7395,64.853 107.5125,64.626" id="Fill-19" fill="#22272D"></path>
                <path d="M0.5331,64.4863 C0.3071,64.2593 0.1671,63.9473 0.1671,63.6013 L0.1671,46.0533 C0.1671,45.3633 0.7261,44.8033 1.4161,44.8033 C2.1071,44.8033 2.6661,45.3633 2.6661,46.0533 L2.6671,63.6013 C2.6671,64.2933 2.1071,64.8513 1.4171,64.8513 C1.0721,64.8513 0.7591,64.7123 0.5331,64.4863" id="Fill-21" fill="#22272D"></path>
                <path d="M54.0931,1.6123 C54.3191,1.3863 54.6321,1.2463 54.9771,1.2463 C55.6671,1.2463 56.2271,1.8053 56.2271,2.4963 L56.2261,106.9443 C56.2261,107.6343 55.6671,108.1943 54.9761,108.1943 C54.2861,108.1943 53.7271,107.6343 53.7271,106.9443 L53.7271,2.4963 C53.7271,2.1513 53.8671,1.8393 54.0931,1.6123" id="Fill-23" fill="#22272D"></path>
                <path d="M45.1781,107.5039 C45.4051,107.2779 45.7171,107.1389 46.0621,107.1389 L63.6101,107.1379 C64.3011,107.1379 64.8601,107.6969 64.8601,108.3879 C64.8601,109.0779 64.3011,109.6379 63.6101,109.6379 L46.0621,109.6379 C45.3711,109.6379 44.8121,109.0789 44.8121,108.3889 C44.8121,108.0429 44.9521,107.7309 45.1781,107.5039" id="Fill-25" fill="#22272D"></path>
                <path d="M45.3187,0.5244 C45.5447,0.2984 45.8577,0.1584 46.2027,0.1584 L63.7507,0.1584 C64.4417,0.1584 65.0007,0.7174 65.0007,1.4084 C65.0007,2.0984 64.4417,2.6584 63.7507,2.6584 L46.2027,2.6584 C45.5117,2.6584 44.9527,2.0994 44.9527,1.4084 C44.9527,1.0634 45.0927,0.7504 45.3187,0.5244" id="Fill-27" fill="#22272D"></path>
                <path d="M92.6073,53.3696 C92.6073,74.0186 75.8673,90.7586 55.2183,90.7586 C34.5693,90.7586 17.8293,74.0186 17.8293,53.3696 C17.8293,32.7206 34.5693,15.9806 55.2183,15.9806 C75.8673,15.9806 92.6073,32.7206 92.6073,53.3696" id="Fill-29" fill="#FCB514"></path>
                <path d="M92.6073,53.3696 C92.6073,74.0186 75.8673,90.7586 55.2183,90.7586 C34.5693,90.7586 17.8293,74.0186 17.8293,53.3696 C17.8293,32.7206 34.5693,15.9806 55.2183,15.9806 C75.8673,15.9806 92.6073,32.7206 92.6073,53.3696 Z" id="Stroke-31" stroke="#22272D" stroke-width="2.5"></path>
            </g>
            <g id="Group-36" transform="translate(45.000000, 36.000000)">
                <mask id="mask-2" fill="white">
                    <use xlink:href="#path-1"></use>
                </mask>
                <g id="Clip-35"></g>
                <polygon id="Fill-34" fill="#FEFEFE" mask="url(#mask-2)" points="-9.7775 9.1758 9.7015 -10.3042 29.0825 9.0758 9.6025 28.5558"></polygon>
            </g>
            <path d="M54.724,37.6362 L54.693,37.6362 C52.69,37.6452 50.804,38.4322 49.382,39.8552 C46.448,42.7882 46.426,47.5402 49.332,50.4472 C52.238,53.3512 56.989,53.3292 59.923,50.3972 C62.857,47.4632 62.879,42.7112 59.973,39.8052 C58.574,38.4062 56.711,37.6362 54.724,37.6362 M54.582,55.1102 C52.036,55.1102 49.496,54.1462 47.564,52.2142 C43.683,48.3332 43.706,41.9952 47.614,38.0872 C49.506,36.1952 52.016,35.1472 54.682,35.1362 C57.359,35.1682 59.859,36.1562 61.741,38.0372 C65.621,41.9192 65.599,48.2562 61.691,52.1642 C59.728,54.1272 57.151,55.1102 54.582,55.1102" id="Fill-37" fill="#22272D"></path>
            <g id="Group-41" transform="translate(53.000000, 64.000000)">
                <mask id="mask-4" fill="white">
                    <use xlink:href="#path-3"></use>
                </mask>
                <g id="Clip-40"></g>
                <polygon id="Fill-39" fill="#FEFEFE" mask="url(#mask-4)" points="-8.9987 7.0166 7.3793 -9.3604 23.6823 6.9426 7.3043 23.3196"></polygon>
            </g>
            <path d="M60.3949,65.6777 C59.0279,65.6777 57.6559,66.2007 56.6099,67.2467 C55.6019,68.2557 55.0429,69.5927 55.037851,71.0107 C55.0319,72.4257 55.5769,73.7537 56.5719,74.7487 C58.6289,76.8067 61.9949,76.7897 64.0739,74.7117 C66.1519,72.6337 66.1689,69.2677 64.1109,67.2097 C63.0889,66.1887 61.7439,65.6777 60.3949,65.6777 M60.2889,78.7807 C58.2989,78.7807 56.3139,78.0267 54.8049,76.5167 C53.3339,75.0467 52.5289,73.0877 52.5378253,71.0007 C52.5459,68.9177 53.3649,66.9567 54.8419,65.4797 C57.8949,62.4277 62.8459,62.4097 65.8789,65.4427 C68.9109,68.4747 68.8949,73.4267 65.8419,76.4797 C64.3089,78.0127 62.2959,78.7807 60.2889,78.7807" id="Fill-42" fill="#22272D"></path>
            <g id="Group-46" transform="translate(73.000000, 44.000000)">
                <mask id="mask-6" fill="white">
                    <use xlink:href="#path-5"></use>
                </mask>
                <g id="Clip-45"></g>
                <polygon id="Fill-44" fill="#FEFEFE" mask="url(#mask-6)" points="-8.8346 6.8525 7.5424 -9.5245 23.8454 6.7785 7.4684 23.1555"></polygon>
            </g>
            <path d="M80.5594,45.5132 C79.1924,45.5132 77.8194,46.0372 76.7734,47.0832 C75.7644,48.0912 75.2064,49.4282 75.2013659,50.8462 C75.1964,52.2612 75.7414,53.5892 76.7364,54.5842 C77.7274,55.5752 79.0454,56.1192 80.4524,56.1192 L80.4744,56.1192 C81.8934,56.1142 83.2294,55.5552 84.2384,54.5472 C86.3164,52.4692 86.3324,49.1032 84.2754,47.0452 C83.2524,46.0242 81.9094,45.5132 80.5594,45.5132 L80.5594,45.5132 Z M80.4524,58.6192 C78.3774,58.6192 76.4314,57.8152 74.9684,56.3522 C73.4974,54.8822 72.6924,52.9232 72.7023079,50.8362 C72.7094,48.7532 73.5284,46.7932 75.0054,45.3162 C78.0594,42.2632 83.0104,42.2442 86.0424,45.2782 C89.0754,48.3102 89.0584,53.2622 86.0054,56.3152 C84.5284,57.7922 82.5674,58.6122 80.4844,58.6192 L80.4524,58.6192 Z" id="Fill-47" fill="#22272D"></path>
            <g id="Group-51" transform="translate(132.000000, 24.000000)">
                <mask id="mask-8" fill="white">
                    <use xlink:href="#path-7"></use>
                </mask>
                <g id="Clip-50"></g>
                <polygon id="Fill-49" fill="#FCDE98" mask="url(#mask-8)" points="-4.5 14.5 14.5 14.5 14.5 -4.5 -4.5 -4.5"></polygon>
            </g>
            <g id="Group-54" transform="translate(50.000000, 127.000000)">
                <mask id="mask-10" fill="white">
                    <use xlink:href="#path-9"></use>
                </mask>
                <g id="Clip-53"></g>
                <polygon id="Fill-52" fill="#E48124" mask="url(#mask-10)" points="-5 10 10 10 10 -5 -5 -5"></polygon>
            </g>
            <g id="Group-59" transform="translate(0.000000, 118.000000)" fill="#FCB514">
                <path d="M11.9999,10.7744 C11.3109,10.7744 10.7509,10.2164 10.7498987,9.5264 C10.7489,8.8364 11.3069,8.2754 11.9979,8.2744 L37.9979,8.2264 L37.9999,8.2264 C38.6889,8.2264 39.2489,8.7854 39.2498987,9.4744 C39.2509,10.1654 38.6929,10.7254 38.0019,10.7264 L12.0019,10.7744 L11.9999,10.7744 Z" id="Fill-55"></path>
                <path d="M21.9999,2.75 L1.9999,2.75 C1.3099,2.75 0.7499,2.19 0.7499,1.5 C0.7499,0.81 1.3099,0.25 1.9999,0.25 L21.9999,0.25 C22.6899,0.25 23.2499,0.81 23.2499,1.5 C23.2499,2.19 22.6899,2.75 21.9999,2.75" id="Fill-57"></path>
            </g>
            <g id="Group-62" transform="translate(116.000000, 0.000000)">
                <mask id="mask-12" fill="white">
                    <use xlink:href="#path-11"></use>
                </mask>
                <g id="Clip-61"></g>
                <polygon id="Fill-60" fill="#F27D20" mask="url(#mask-12)" points="-5 19 19 19 19 -5 -5 -5"></polygon>
            </g>
            <g id="Group-67" transform="translate(78.000000, 68.000000)">
                <path d="M6.6796,3.918 C6.6796,5.702 5.2336,7.149 3.4486,7.149 C1.6626,7.149 0.2166,5.702 0.2166,3.918 C0.2166,2.133 1.6626,0.687 3.4486,0.687 C5.2336,0.687 6.6796,2.133 6.6796,3.918" id="Fill-63" fill="#FEFEFE"></path>
                <path d="M6.6796,3.918 C6.6796,5.702 5.2336,7.149 3.4486,7.149 C1.6626,7.149 0.2166,5.702 0.2166,3.918 C0.2166,2.133 1.6626,0.687 3.4486,0.687 C5.2336,0.687 6.6796,2.133 6.6796,3.918 Z" id="Stroke-65" stroke="#22272D" stroke-width="2.5"></path>
            </g>
        </g>
    </g>
</svg>